<?xml version="1.0" encoding="UTF-8" standalone="no"?>
<svg xmlns="http://www.w3.org/2000/svg" xmlns:xlink="http://www.w3.org/1999/xlink" contentStyleType="text/css" height="304px" preserveAspectRatio="none" style="width:594px;height:304px;background:#FFFFFF;" version="1.1" viewBox="0 0 594 304" width="594px" zoomAndPan="magnify"><defs/><g><rect height="26.2969" id="_title" style="stroke:#00000000;stroke-width:1.0;fill:none;" width="250" x="165.25" y="5"/><text fill="#000000" font-family="sans-serif" font-size="14" font-weight="bold" lengthAdjust="spacing" textLength="240" x="170.25" y="22.9951">Coupling Component Diagram</text><!--MD5=[1a8d404bc7806d79b115573ba3cd9941]
cluster Execution Engine--><g id="cluster_Execution Engine"><path d="M124.5,43.2969 L262.5,43.2969 A3.75,3.75 0 0 1 265,45.7969 L272,65.5938 L456.5,65.5938 A2.5,2.5 0 0 1 459,68.0938 L459,218.7969 A2.5,2.5 0 0 1 456.5,221.2969 L124.5,221.2969 A2.5,2.5 0 0 1 122,218.7969 L122,45.7969 A2.5,2.5 0 0 1 124.5,43.2969 " style="stroke:#000000;stroke-width:1.5;fill:none;"/><line style="stroke:#000000;stroke-width:1.5;fill:none;" x1="122" x2="272" y1="65.5938" y2="65.5938"/><text fill="#000000" font-family="sans-serif" font-size="14" font-weight="bold" lengthAdjust="spacing" textLength="137" x="126" y="58.292">Execution Engine</text></g><!--MD5=[b3ad01ddeee7a8023078597cce53191f]
entity D1--><g id="elem_D1"><rect fill="#F1F1F1" height="46.2969" rx="2.5" ry="2.5" style="stroke:#181818;stroke-width:0.5;" width="123" x="138" y="78.2969"/><rect fill="#F1F1F1" height="10" style="stroke:#181818;stroke-width:0.5;" width="15" x="241" y="83.2969"/><rect fill="#F1F1F1" height="2" style="stroke:#181818;stroke-width:0.5;" width="4" x="239" y="85.2969"/><rect fill="#F1F1F1" height="2" style="stroke:#181818;stroke-width:0.5;" width="4" x="239" y="89.2969"/><text fill="#000000" font-family="sans-serif" font-size="14" lengthAdjust="spacing" textLength="83" x="153" y="111.292">Discipline 1</text></g><!--MD5=[a36976c252c313df2dc3293dc523a6ce]
entity D2--><g id="elem_D2"><rect fill="#F1F1F1" height="46.2969" rx="2.5" ry="2.5" style="stroke:#181818;stroke-width:0.5;" width="122" x="321" y="117.2969"/><rect fill="#F1F1F1" height="10" style="stroke:#181818;stroke-width:0.5;" width="15" x="423" y="122.2969"/><rect fill="#F1F1F1" height="2" style="stroke:#181818;stroke-width:0.5;" width="4" x="421" y="124.2969"/><rect fill="#F1F1F1" height="2" style="stroke:#181818;stroke-width:0.5;" width="4" x="421" y="128.2969"/><text fill="#000000" font-family="sans-serif" font-size="14" lengthAdjust="spacing" textLength="82" x="336" y="150.292">Discipline 2</text></g><!--MD5=[2b5544800db797a8f88460b77a577bae]
entity D3--><g id="elem_D3"><rect fill="#F1F1F1" height="46.2969" rx="2.5" ry="2.5" style="stroke:#181818;stroke-width:0.5;" width="123" x="138" y="159.2969"/><rect fill="#F1F1F1" height="10" style="stroke:#181818;stroke-width:0.5;" width="15" x="241" y="164.2969"/><rect fill="#F1F1F1" height="2" style="stroke:#181818;stroke-width:0.5;" width="4" x="239" y="166.2969"/><rect fill="#F1F1F1" height="2" style="stroke:#181818;stroke-width:0.5;" width="4" x="239" y="170.2969"/><text fill="#000000" font-family="sans-serif" font-size="14" lengthAdjust="spacing" textLength="83" x="153" y="192.292">Discipline 3</text></g><!--MD5=[5f16cc0dd9d648b2f1865e19cc4c38b6]
entity DI1--><g id="elem_DI1"><ellipse cx="38" cy="95.2969" fill="#F1F1F1" rx="8" ry="8" style="stroke:#181818;stroke-width:0.5;"/><text fill="#000000" font-family="sans-serif" font-size="14" lengthAdjust="spacing" textLength="64" x="6" y="125.292">Data In 1</text></g><!--MD5=[c9dddaada0e223323d299290ecdbfcb5]
entity DI2--><g id="elem_DI2"><ellipse cx="38" cy="188.2969" fill="#F1F1F1" rx="8" ry="8" style="stroke:#181818;stroke-width:0.5;"/><text fill="#000000" font-family="sans-serif" font-size="14" lengthAdjust="spacing" textLength="63" x="6.5" y="218.292">Data In 2</text></g><!--MD5=[d7d3ee17725c8b92c2f117129276f6de]
entity DO1--><g id="elem_DO1"><ellipse cx="549" cy="140.2969" fill="#F1F1F1" rx="8" ry="8" style="stroke:#181818;stroke-width:0.5;"/><text fill="#000000" font-family="sans-serif" font-size="14" lengthAdjust="spacing" textLength="77" x="510.5" y="170.292">Data Out 1</text></g><!--MD5=[c3d5ffe36b095e89edd55abc59d2bd9c]
entity DO2--><g id="elem_DO2"><ellipse cx="382" cy="266.2969" fill="#F1F1F1" rx="8" ry="8" style="stroke:#181818;stroke-width:0.5;"/><text fill="#000000" font-family="sans-serif" font-size="14" lengthAdjust="spacing" textLength="76" x="344" y="296.292">Data Out 2</text></g><!--MD5=[1ea668da1d308f88c39c4d632509ce36]
reverse link DI1 to D1--><g id="link_DI1_D1"><path d="M57.339,95.9869 C76.9471,96.7239 109.096,97.9339 137.764,99.0119 " fill="none" id="DI1-backto-D1" style="stroke:#181818;stroke-width:1.0;"/><path d="M49.8869,104.1699 A9,9 0 0 0 50.5229 87.2674" fill="none" style="stroke:#181818;stroke-width:1.5;"/></g><!--MD5=[0c0ada5995bbb98cd06167d9724daf93]
reverse link DI2 to D3--><g id="link_DI2_D3"><path d="M57.339,187.6069 C76.9471,186.8699 109.096,185.6599 137.764,184.5819 " fill="none" id="DI2-backto-D3" style="stroke:#181818;stroke-width:1.0;"/><path d="M50.5229,196.3264 A9,9 0 0 0 49.8869 179.4239" fill="none" style="stroke:#181818;stroke-width:1.5;"/></g><!--MD5=[ba62c61b86bc53b24f134fe980b8378b]
link D1 to D2--><g id="link_D1_D2"><path d="M261.106,114.3919 C280.36,118.5519 301.64,123.1499 320.861,127.3029 " fill="none" id="D1-D2" style="stroke:#181818;stroke-width:1.0;"/><path d="M296.4141,129.2549 A10,10 0 0 0 299.4008 115.4318" fill="none" style="stroke:#181818;stroke-width:1.5;"/><ellipse cx="290.9959" cy="120.85" fill="#FFFFFF" rx="6" ry="6" style="stroke:#181818;stroke-width:1.5;"/></g><!--MD5=[5c933f601bacab34caae67790ad9598e]
link D3 to D2--><g id="link_D3_D2"><path d="M261.106,168.1949 C280.36,163.7149 301.64,158.7629 320.861,154.2909 " fill="none" id="D3-D2" style="stroke:#181818;stroke-width:1.0;"/><path d="M299.4855,166.5244 A10,10 0 0 0 296.2804 152.7502" fill="none" style="stroke:#181818;stroke-width:1.5;"/><ellipse cx="290.9959" cy="161.2399" fill="#FFFFFF" rx="6" ry="6" style="stroke:#181818;stroke-width:1.5;"/></g><!--MD5=[3f9b8a9f92523fe6a0c848dfed6d9320]
link D2 to DO1--><g id="link_D2_DO1"><path d="M443.036,140.2969 C476.389,140.2969 515.044,140.2969 534.835,140.2969 " fill="none" id="D2-to-DO1" style="stroke:#181818;stroke-width:1.0;"/><ellipse cx="533.897" cy="140.2969" fill="#FFFFFF" rx="6" ry="6" style="stroke:#181818;stroke-width:1.5;"/></g><!--MD5=[308de9bd6b7866607960ef91f7d1c578]
link D3 to DO2--><g id="link_D3_DO2"><path d="M250.3,205.4726 C290.437,224.1514 344.032,249.0932 368.212,260.3459 " fill="none" id="D3-to-DO2" style="stroke:#181818;stroke-width:1.0;"/><ellipse cx="367.4697" cy="260.0016" fill="#FFFFFF" rx="6" ry="6" style="stroke:#181818;stroke-width:1.5;"/></g><!--MD5=[4edb2937a4cf018183cbdffe0abeef63]
@startuml
left to right direction

title Coupling Component Diagram

() "Data In 1" as DI1
() "Data In 2" as DI2

package "Execution Engine" {
  component "Discipline 1" as D1
  component "Discipline 2" as D2
  component "Discipline 3" as D3
}

() "Data Out 1" as DO1
() "Data Out 2" as DO2

DI1 )- - D1
DI2 )- - D3
D1 -0)- D2
D3 -0)- D2
D2 - -0 DO1
D3 - -0 DO2
@enduml

PlantUML version 1.2022.7beta2(Unknown compile time)
(GPL source distribution)
Java Runtime: Java(TM) SE Runtime Environment
JVM: Java HotSpot(TM) 64-Bit Server VM
Default Encoding: UTF-8
Language: en
Country: US
--></g></svg>